# xmcd CD database file
#
# Track frame offsets:
#	150
#	34853
#	60440
#	92513
#	126258
#	144273
#	177173
#
# Disc length: 2579 seconds
#
# Revision: 0
# Processed by: cddbd v1.4PL0 Copyright (c) Steve Scherf et al.
# Submitted via: CDex 1.51
#
DISCID=540a1107
DTITLE=Red Rodney - Yard's Pad
DYEAR=1976
DGENRE=Jazz
TTITLE0=Yard's Pad
TTITLE1=Red Rod
TTITLE2=Informality
TTITLE3=S.A.S.
TTITLE4=Here At Last
TTITLE5=The Fourth Of March
TTITLE6=I Don't Remember April
EXTD=YEAR: 1976
EXTT0=
EXTT1=
EXTT2=
EXTT3=
EXTT4=
EXTT5=
EXTT6=
PLAYORDER=
